<svg width="106" height="106" viewBox="0 0 106 106" fill="none" xmlns="http://www.w3.org/2000/svg">
<path opacity="0.34" d="M53 66.25C60.3178 66.25 66.25 60.3178 66.25 53C66.25 45.6822 60.3178 39.75 53 39.75C45.6822 39.75 39.75 45.6822 39.75 53C39.75 60.3178 45.6822 66.25 53 66.25Z" stroke="#0065FF" stroke-width="6.65039" stroke-miterlimit="10" stroke-linecap="round" stroke-linejoin="round"/>
<path d="M8.83325 56.8911V49.1178C8.83325 44.5245 12.5874 40.7261 17.2249 40.7261C25.2191 40.7261 28.4874 35.0728 24.4683 28.1386C22.1716 24.1636 23.5408 18.9961 27.5599 16.6995L35.2008 12.327C38.6899 10.2511 43.1949 11.4878 45.2708 14.977L45.7566 15.8161C49.7316 22.7503 56.2682 22.7503 60.2874 15.8161L60.7733 14.977C62.8491 11.4878 67.3541 10.2511 70.8433 12.327L78.4841 16.6995C82.5033 18.9961 83.8724 24.1636 81.5757 28.1386C77.5566 35.0728 80.8249 40.7261 88.8191 40.7261C93.4124 40.7261 97.2107 44.4803 97.2107 49.1178V56.8911C97.2107 61.4845 93.4566 65.2828 88.8191 65.2828C80.8249 65.2828 77.5566 70.9361 81.5757 77.8703C83.8724 81.8895 82.5033 87.0128 78.4841 89.3095L70.8433 93.682C67.3541 95.7578 62.8491 94.5211 60.7733 91.032L60.2874 90.1928C56.3124 83.2586 49.7757 83.2586 45.7566 90.1928L45.2708 91.032C43.1949 94.5211 38.6899 95.7578 35.2008 93.682L27.5599 89.3095C23.5408 87.0128 22.1716 81.8453 24.4683 77.8703C28.4874 70.9361 25.2191 65.2828 17.2249 65.2828C12.5874 65.2828 8.83325 61.4845 8.83325 56.8911Z" stroke="#0065FF" stroke-width="6.65039" stroke-miterlimit="10" stroke-linecap="round" stroke-linejoin="round"/>
</svg>
