<svg width="68" height="68" viewBox="0 0 68 68" fill="none" xmlns="http://www.w3.org/2000/svg">
<path d="M35.4991 57.8501H17.5924C8.63906 57.8501 5.66406 51.9 5.66406 45.9217V22.0651C5.66406 13.1117 8.63906 10.1367 17.5924 10.1367H35.4991C44.4524 10.1367 47.4274 13.1117 47.4274 22.0651V45.9217C47.4274 54.875 44.4241 57.8501 35.4991 57.8501Z" stroke="#0065FF" stroke-width="4.25" stroke-linecap="round" stroke-linejoin="round"/>
<path opacity="0.4" d="M55.3142 48.4484L47.4375 42.9234V25.0451L55.3142 19.5201C59.1675 16.8284 62.3408 18.4718 62.3408 23.2034V44.7934C62.3408 49.5251 59.1675 51.1684 55.3142 48.4484Z" stroke="#0065FF" stroke-width="4.25" stroke-linecap="round" stroke-linejoin="round"/>
<path opacity="0.4" d="M32.5859 31.168C34.9331 31.168 36.8359 29.2652 36.8359 26.918C36.8359 24.5708 34.9331 22.668 32.5859 22.668C30.2387 22.668 28.3359 24.5708 28.3359 26.918C28.3359 29.2652 30.2387 31.168 32.5859 31.168Z" stroke="#0065FF" stroke-width="4.25" stroke-linecap="round" stroke-linejoin="round"/>
</svg>
