<svg width="116" height="116" viewBox="0 0 116 116" fill="none" xmlns="http://www.w3.org/2000/svg">
<path opacity="0.4" d="M16.1802 9.66797H59.197C62.7737 9.66797 65.7219 12.6163 65.7219 16.193V23.3462C65.7219 25.9562 64.0786 29.1947 62.4836 30.838L48.4671 43.2113C46.5338 44.8546 45.2286 48.0929 45.2286 50.7029V64.7197C45.2286 66.653 43.9237 69.263 42.2803 70.278L37.737 73.2263C33.4837 75.8363 27.6352 72.888 27.6352 67.668V50.4129C27.6352 48.1413 26.3303 45.193 25.0253 43.5497L12.652 30.4996C11.0086 28.8563 9.70371 25.9563 9.70371 23.9746V16.483C9.65538 12.6163 12.6035 9.66797 16.1802 9.66797Z" stroke="#0065FF" stroke-width="7.25" stroke-miterlimit="10" stroke-linecap="round" stroke-linejoin="round"/>
<path d="M9.66406 57.9937V72.4937C9.66406 96.6604 19.3307 106.327 43.4974 106.327H72.4974C96.6641 106.327 106.331 96.6604 106.331 72.4937V43.4937C106.331 28.4137 102.561 18.9403 93.8123 14.0103C91.3473 12.6087 86.4174 11.5453 81.9225 10.8203" stroke="#0065FF" stroke-width="7.25" stroke-linecap="round" stroke-linejoin="round"/>
<path opacity="0.4" d="M62.8359 62.832H87.0026" stroke="#0065FF" stroke-width="7.25" stroke-linecap="round" stroke-linejoin="round"/>
<path opacity="0.4" d="M53.1641 82.168H86.9974" stroke="#0065FF" stroke-width="7.25" stroke-linecap="round" stroke-linejoin="round"/>
</svg>
