<svg width="106" height="106" viewBox="0 0 106 106" fill="none" xmlns="http://www.w3.org/2000/svg">
<path d="M83.9166 39.7491C83.9166 46.1533 82.0174 52.0275 78.7491 56.93C73.9791 63.9967 66.4266 68.9875 57.6374 70.2683C56.1358 70.5333 54.5899 70.6658 52.9999 70.6658C51.4099 70.6658 49.8641 70.5333 48.3624 70.2683C39.5733 68.9875 32.0208 63.9967 27.2508 56.93C23.9824 52.0275 22.0833 46.1533 22.0833 39.7491C22.0833 22.6566 35.9074 8.83246 52.9999 8.83246C70.0924 8.83246 83.9166 22.6566 83.9166 39.7491Z" stroke="#0065FF" stroke-width="6.62468" stroke-linecap="round" stroke-linejoin="round"/>
<path opacity="0.4" d="M93.8542 81.5685L86.5667 83.2909C84.9325 83.6884 83.6517 84.9251 83.2984 86.5593L81.7525 93.0518C80.9134 96.5851 76.4084 97.6452 74.0675 94.8627L53 70.6593L31.9325 94.9067C29.5917 97.6892 25.0867 96.6292 24.2475 93.0959L22.7017 86.6034C22.3042 84.9692 21.0234 83.6884 19.4334 83.3351L12.1459 81.6127C8.78919 80.8177 7.59669 76.6217 10.0259 74.1926L27.2509 56.9676C32.0209 64.0343 39.5734 69.0252 48.3625 70.306C49.8642 70.571 51.41 70.7035 53 70.7035C54.59 70.7035 56.1359 70.571 57.6375 70.306C66.4267 69.0252 73.9792 64.0343 78.7492 56.9676L95.9742 74.1926C98.4033 76.5776 97.2108 80.7735 93.8542 81.5685Z" stroke="#0065FF" stroke-width="6.62468" stroke-linecap="round" stroke-linejoin="round"/>
<path opacity="0.4" d="M55.5617 26.4102L58.1675 31.6219C58.5209 32.3285 59.4484 33.0352 60.2875 33.1677L65.0134 33.9627C68.0167 34.4485 68.7234 36.6569 66.5592 38.821L62.8934 42.4868C62.275 43.1052 61.9217 44.2977 62.1425 45.1811L63.2025 49.7302C64.0417 53.3077 62.1425 54.721 58.9625 52.8218L54.5459 50.216C53.7509 49.7302 52.4259 49.7302 51.6309 50.216L47.2142 52.8218C44.0342 54.6768 42.135 53.3077 42.9742 49.7302L44.0342 45.1811C44.2109 44.3419 43.9017 43.1052 43.2834 42.4868L39.6175 38.821C37.4534 36.6569 38.16 34.4927 41.1634 33.9627L45.8892 33.1677C46.6842 33.0352 47.6117 32.3285 47.965 31.6219L50.5709 26.4102C51.8517 23.5836 54.1484 23.5836 55.5617 26.4102Z" stroke="#0065FF" stroke-width="6.62468" stroke-linecap="round" stroke-linejoin="round"/>
</svg>
