<svg width="246" height="55" viewBox="0 0 246 55" fill="none" xmlns="http://www.w3.org/2000/svg">
<path d="M95.6789 21.5189C93.6272 21.5189 92.9135 22.8867 92.9135 25.0574V29.9935C92.9135 32.6696 93.7759 33.2346 95.7087 33.2346H105.789V29.6366H99.2472V25.0871H111.32V37.7841H95.56C89.7616 37.7841 87.2043 35.6134 87.2043 29.6961V25.3547C87.2043 19.6455 89.0182 16.9694 94.8166 16.9694H111.32V21.5189H95.6789ZM121.825 33.2346H136.931V37.7544H116.294V16.9694H121.825V33.2346ZM157.89 17.0883L164.194 37.8733H158.544L157.087 33.0562H145.907L144.45 37.8733H138.8L145.104 17.0883H157.89ZM153.638 21.6378H149.356L147.394 28.2391H155.601L153.638 21.6378ZM167.031 37.7544V31.5694L183.951 21.5189H167.031V16.9694H191.147V23.1841L174.227 33.2346H191.147V37.7544H167.031ZM227.722 17.0883L234.026 37.8733H228.377L226.92 33.0562H215.739L214.282 37.8733H208.632L214.936 17.0883H227.722ZM223.47 21.6378H219.188L217.226 28.2391H225.433L223.47 21.6378ZM243.138 37.7841H237.607V16.9694H243.138V37.7841Z" fill="white"/>
<path fill-rule="evenodd" clip-rule="evenodd" d="M15.6889 0.226345C13.7765 3.5032 -0.00993949 27.4819 5.37763e-06 27.514C0.00779436 27.5392 1.80503 30.6667 3.99395 34.4641L7.97377 41.3684L23.6592 41.4038L19.768 48.1582C17.6279 51.8732 15.8768 54.935 15.8768 54.9622C15.8768 54.9895 22.9996 55.0056 31.7053 54.9982L47.5337 54.9845L51.5255 48.0608C53.7209 44.2528 55.5172 41.1087 55.5172 41.074C55.5172 41.0394 55.3808 40.786 55.2142 40.511C53.1577 37.117 47.957 28.5381 47.7184 28.146C47.5467 27.864 47.377 27.6315 47.3412 27.6294C47.3054 27.6272 45.5334 30.6473 43.4034 34.3406L39.5307 41.0556L23.8397 41.0893L23.4126 40.3412C23.1777 39.9297 21.4172 36.8726 19.5004 33.5475C16.3811 28.1368 16.0236 27.4859 16.0951 27.3491C16.2617 27.0309 23.7566 14.0308 23.8043 13.9773C23.8528 13.923 39.3006 13.8929 39.3546 13.9471C39.3693 13.9618 38.9798 14.6611 38.4893 15.501C37.9986 16.3409 36.2436 19.3444 34.5892 22.1753C32.9348 25.0062 31.5651 27.3645 31.5453 27.4161C31.5154 27.4943 34.1363 27.5093 47.4947 27.5075L63.48 27.5053L67.4093 20.7761C69.5704 17.075 71.3487 14.0047 71.361 13.9532C71.3797 13.875 68.7461 13.8567 55.4241 13.842L39.4647 13.8245L43.3224 7.20823C45.4441 3.56929 47.2578 0.45875 47.3527 0.29599L47.5254 0H15.821L15.6889 0.226345Z" fill="#1260CC"/>
</svg>
