<svg width="69" height="71" viewBox="0 0 69 71" fill="none" xmlns="http://www.w3.org/2000/svg">
<path opacity="0.4" d="M34.9947 41.4338C38.5444 41.4338 41.422 38.6063 41.422 35.1184C41.422 31.6305 38.5444 28.803 34.9947 28.803C31.445 28.803 28.5674 31.6305 28.5674 35.1184C28.5674 38.6063 31.445 41.4338 34.9947 41.4338Z" stroke="#0065FF" stroke-width="3.72322" stroke-linecap="round" stroke-linejoin="round"/>
<path fill-rule="evenodd" clip-rule="evenodd" d="M4.85262 26.3164C8.6443 13.2645 20.6913 3.72493 34.9664 3.72493C49.2415 3.72493 61.2885 13.2645 65.0801 26.3164H68.9409C65.049 11.1839 51.3136 0.00170898 34.9664 0.00170898C18.6192 0.00170898 4.88375 11.1839 0.991879 26.3164H4.85262ZM4.85214 43.8413H0.991455C4.88275 58.9747 18.6186 70.1577 34.9664 70.1577C51.3142 70.1577 65.05 58.9747 68.9413 43.8413H65.0806C61.2895 56.8941 49.2421 66.4345 34.9664 66.4345C20.6907 66.4345 8.64328 56.8941 4.85214 43.8413Z" fill="#0065FF"/>
</svg>
