<svg width="272" height="252" viewBox="0 0 272 252" fill="none" xmlns="http://www.w3.org/2000/svg">
<g filter="url(#filter0_b_116_8015)">
<path d="M0 0H271V225H0V0Z" fill="url(#paint0_linear_116_8015)" fill-opacity="0.45"/>
<path d="M0.5 0.5H270.5V224.5H0.5V0.5Z" stroke="#0269F9"/>
</g>
<path d="M25.6424 71.1274L34.5634 71.1164V78.8164H32.5174V72.7994H27.6884V78.8164H25.6424V71.1274ZM42.5684 71.1274C44.7134 71.1274 45.3844 72.1284 45.3844 74.2294V75.8354C45.3844 78.0244 44.4274 78.8274 42.2824 78.8274H39.4224C37.2774 78.8274 36.3314 78.0244 36.3314 75.8354V74.2294C36.3314 72.1284 37.0024 71.1274 39.1474 71.1274H42.5684ZM43.2724 75.9454V74.1194C43.2724 73.3164 43.0084 72.8104 42.2494 72.8104H39.4664C38.7074 72.8104 38.4434 73.3164 38.4434 74.1194V75.9454C38.4434 76.9354 38.7624 77.1444 39.4774 77.1444H42.2384C42.9534 77.1444 43.2724 76.9354 43.2724 75.9454ZM47.1571 71.1274L56.0781 71.1164V78.8164H54.0321V72.7994H49.2031V78.8164H47.1571V71.1274ZM64.4571 71.1274L66.7891 78.8274H64.6991L64.1601 77.0344H60.0241L59.4851 78.8274H57.3951L59.7271 71.1274H64.4571ZM62.8841 72.8104H61.3001L60.5741 75.2524H63.6101L62.8841 72.8104ZM77.5731 77.1444H78.6291V79.8834H76.5721V78.8274H69.6751V79.8834H67.6181L67.5961 77.1444H68.6411C68.6411 76.5504 68.6411 74.4054 68.6411 74.0864C68.6411 73.7124 68.6741 73.1074 68.7291 72.8104C68.9711 71.5894 69.7411 71.1274 71.2701 71.1274H77.5731V77.1444ZM70.7531 73.5034V77.1444H75.5161V72.8104H71.4571C71.0721 72.8104 70.7531 73.1184 70.7531 73.5034ZM86.5303 71.1274L88.8623 78.8274H86.7723L86.2333 77.0344H82.0973L81.5583 78.8274H79.4683L81.8003 71.1274H86.5303ZM84.9573 72.8104H83.3733L82.6473 75.2524H85.6833L84.9573 72.8104ZM97.0613 71.1274L99.1073 71.1164V78.8164H97.0613V75.8134H92.2323V78.8164H90.1863V71.1274L92.2323 71.1164V74.1304H97.0613V71.1274ZM106.628 71.1274H109.961V78.8164H107.893V72.9094L104.406 78.8164H101.04V71.1274H103.108V77.0344L106.628 71.1274ZM112.807 76.9024C112.18 76.6384 111.872 76.1324 111.751 75.3404C111.696 75.0104 111.685 74.4494 111.685 74.0754C111.685 73.7014 111.707 73.0964 111.762 72.7994C112.004 71.5784 112.774 71.1164 114.303 71.1164H120.606V78.8164H118.56V77.1334H114.985L114.006 78.8164H111.685L112.807 76.9024ZM118.56 75.3514V72.7994H114.49C114.105 72.7994 113.797 73.1074 113.797 73.4924V74.6584C113.797 75.0434 114.105 75.3514 114.49 75.3514H118.56Z" fill="white"/>
<path d="M210.395 71.9524L214.289 71.1274V78.8164H212.232V73.2394L210.395 73.6354V71.9524ZM223.787 71.3144C225.041 71.8754 225.041 72.9974 225.041 73.8994C225.041 74.9004 223.776 75.3624 223.204 75.5604L218.782 77.1444H225.041V78.8164H216.12V76.1874L222.258 73.9984C223.072 73.6904 223.072 72.8764 222.071 72.8104C222.06 72.8104 222.06 72.8104 222.049 72.8104H216.12V71.1274H222.423C223.039 71.1274 223.512 71.1934 223.787 71.3144ZM230.488 70.9624L227.562 78.8164H226.077L229.003 70.9624H230.488ZM231.259 71.9524L235.153 71.1274V78.8164H233.096V73.2394L231.259 73.6354V71.9524ZM245.849 74.0314L245.86 76.0554C245.86 76.9464 245.75 77.2764 245.695 77.4634C245.53 78.0134 245.189 78.4204 244.606 78.6294C244.331 78.7284 243.858 78.8274 243.242 78.8274H241.394H239.557C238.941 78.8274 238.468 78.7284 238.193 78.6294C237.61 78.4204 237.269 78.0134 237.104 77.4634C237.049 77.2764 236.939 76.9464 236.939 76.0554L236.95 74.0314H237.929L237.918 73.8994C237.918 72.9974 238.028 72.6674 238.094 72.4804C238.281 71.9304 238.6 71.5234 239.183 71.3144C239.458 71.2154 239.931 71.1164 240.547 71.1164H241.394H242.252C242.868 71.1164 243.341 71.2154 243.616 71.3144C244.199 71.5234 244.518 71.9304 244.705 72.4804C244.771 72.6674 244.87 72.9974 244.87 73.8994V74.0314H245.849ZM240.921 72.7994C240.129 72.7994 239.975 73.2724 239.975 73.8884V74.0314H242.824V73.8884C242.824 73.2724 242.67 72.7994 241.878 72.7994H240.921ZM242.868 77.1444C243.649 77.1444 243.814 76.6714 243.814 76.0554V75.7144H238.985V76.0554C238.985 76.6714 239.15 77.1444 239.931 77.1444H242.868Z" fill="white"/>
<rect x="17.0703" y="93.25" width="237" height="28.498" fill="#153965" fill-opacity="0.45"/>
<rect x="17.0703" y="159.25" width="237" height="28" fill="#153965" fill-opacity="0.45"/>
<g filter="url(#filter1_b_116_8015)">
<path d="M256.699 1H269.997V14.3033M14.2979 1H1V14.3033M270 210.697V224H256.702M1.00265 210.364V224H14.633" stroke="white" stroke-width="2"/>
</g>
<g filter="url(#filter2_d_116_8015)">
<path d="M36.7531 221.25H234.387L237.07 224.75L234.387 228.25H36.7531L34.0703 224.75L36.7531 221.25Z" fill="#0065FF"/>
</g>
<path d="M28.2934 104.077H34.3984V106.849H32.3414V105.76H28.6124C27.8534 105.76 27.5894 106.266 27.5894 107.08V108.895C27.5894 109.896 27.9084 110.094 28.6234 110.094H32.3414V109.005H34.3984V111.777H28.5684C26.4234 111.777 25.4774 110.974 25.4774 108.796V107.179C25.4774 105.078 26.1484 104.077 28.2934 104.077ZM42.6189 111.788L40.5509 108.829H38.2849V111.788H36.2389V104.088H38.2849V107.047H40.4299L42.4539 104.088H44.9399L42.2339 107.861L45.1599 111.788H42.6189ZM52.0904 104.088C54.2354 104.088 54.9064 105.089 54.9064 107.19V108.796C54.9064 110.985 53.9494 111.788 51.8044 111.788H48.9444C46.7994 111.788 45.8534 110.985 45.8534 108.796V107.19C45.8534 105.089 46.5244 104.088 48.6694 104.088H52.0904ZM52.7944 108.906V107.08C52.7944 106.277 52.5304 105.771 51.7714 105.771H48.9884C48.2294 105.771 47.9654 106.277 47.9654 107.08V108.906C47.9654 109.896 48.2844 110.105 48.9994 110.105H51.7604C52.4754 110.105 52.7944 109.896 52.7944 108.906ZM65.523 105.76C65.578 106.057 65.6 106.662 65.6 107.036C65.6 107.41 65.589 107.982 65.534 108.301C65.336 109.566 64.687 110.105 62.982 110.105H58.725V111.777H56.679V104.077H62.982C64.511 104.077 65.281 104.539 65.523 105.76ZM63.488 107.619V106.464C63.488 106.079 63.18 105.76 62.795 105.76H58.725V108.312H62.795C63.18 108.312 63.488 108.004 63.488 107.619ZM73.3042 104.088C75.4492 104.088 76.1202 105.089 76.1202 107.19V108.796C76.1202 110.985 75.1632 111.788 73.0182 111.788H70.1582C68.0132 111.788 67.0672 110.985 67.0672 108.796V107.19C67.0672 105.089 67.7382 104.088 69.8832 104.088H73.3042ZM74.0082 108.906V107.08C74.0082 106.277 73.7442 105.771 72.9852 105.771H70.2022C69.4432 105.771 69.1792 106.277 69.1792 107.08V108.906C69.1792 109.896 69.4982 110.105 70.2132 110.105H72.9742C73.6892 110.105 74.0082 109.896 74.0082 108.906ZM80.5439 104.077H86.6489V106.849H84.5919V105.76H80.8629C80.1039 105.76 79.8399 106.266 79.8399 107.08V108.895C79.8399 109.896 80.1589 110.094 80.8739 110.094H84.5919V109.005H86.6489V111.777H80.8189C78.6739 111.777 77.7279 110.974 77.7279 108.796V107.179C77.7279 105.078 78.3989 104.077 80.5439 104.077ZM96.7833 104.088V105.771H93.3513V111.788H91.2943V105.771H87.8623V104.088H96.7833ZM107.018 106.981L107.029 109.005C107.029 109.907 106.919 110.226 106.864 110.424C106.699 110.963 106.358 111.37 105.775 111.579C105.5 111.689 105.027 111.777 104.411 111.777H98.1077V104.077L100.154 104.088V106.981H107.018ZM104.037 110.094C104.818 110.094 104.983 109.621 104.983 109.005V108.664H100.154V110.094H104.037Z" fill="white"/>
<path d="M28.2934 170.003H34.3984V172.775H32.3414V171.686H28.6124C27.8534 171.686 27.5894 172.192 27.5894 173.006V174.821C27.5894 175.822 27.9084 176.02 28.6234 176.02H32.3414V174.931H34.3984V177.703H28.5684C26.4234 177.703 25.4774 176.9 25.4774 174.722V173.105C25.4774 171.004 26.1484 170.003 28.2934 170.003ZM44.5329 170.014V171.697H41.1009V177.714H39.0439V171.697H35.6119V170.014H44.5329ZM51.8755 170.014C54.0205 170.014 54.6915 171.015 54.6915 173.116V174.722C54.6915 176.911 53.7345 177.714 51.5895 177.714H48.7295C46.5845 177.714 45.6385 176.911 45.6385 174.722V173.116C45.6385 171.015 46.3095 170.014 48.4545 170.014H51.8755ZM52.5795 174.832V173.006C52.5795 172.203 52.3155 171.697 51.5565 171.697H48.7735C48.0145 171.697 47.7505 172.203 47.7505 173.006V174.832C47.7505 175.822 48.0695 176.031 48.7845 176.031H51.5455C52.2605 176.031 52.5795 175.822 52.5795 174.832ZM62.0632 170.014H65.3962V177.703H63.3282V171.796L59.8412 177.703H56.4752V170.014H58.5432V175.921L62.0632 170.014ZM62.9762 169.046C62.9872 169.222 62.9102 169.442 62.6242 169.508C61.6232 169.717 60.2482 169.717 59.2472 169.508C58.9612 169.442 58.8732 169.222 58.8952 169.046C58.9172 168.859 58.9722 168.672 59.0492 168.496C59.1152 168.342 59.2362 168.265 59.4782 168.298C60.3362 168.441 61.5352 168.441 62.3932 168.298C62.6352 168.265 62.7452 168.342 62.8222 168.496C62.8992 168.672 62.9542 168.859 62.9762 169.046ZM73.7307 177.714L71.6627 174.755H69.3967V177.714H67.3507V170.014H69.3967V172.973H71.5417L73.5657 170.014H76.0517L73.3457 173.787L76.2717 177.714H73.7307ZM83.9951 170.014L86.3271 177.714H84.2371L83.6981 175.921H79.5621L79.0231 177.714H76.9331L79.2651 170.014H83.9951ZM82.4221 171.697H80.8381L80.1121 174.139H83.1481L82.4221 171.697Z" fill="white"/>
<path d="M34.4974 143.048H35.5534V145.776H33.5074V144.753H28.1944C26.6654 144.753 25.8954 144.291 25.6534 143.07C25.5984 142.773 25.5764 142.168 25.5764 141.794C25.5764 141.431 25.5764 137.031 25.5764 137.031H27.6884V142.344C27.6884 142.729 27.9964 143.048 28.3814 143.048H32.4514V137.031H34.4974V143.048ZM45.9333 138.736H39.0583V140.056H44.8663V141.739H39.0583V143.07H45.9333V144.753H37.0123V137.053H45.9333V138.736ZM50.612 137.053H56.915V144.753H54.869V138.736H50.788C50.414 138.736 50.095 139.044 50.095 139.429V141.651C50.095 142.223 50.051 142.531 49.985 142.894C49.886 143.455 49.578 143.906 49.204 144.214C48.731 144.61 48.082 144.753 47.114 144.753V143.07C47.895 142.971 47.972 142.168 47.983 142.047C47.983 141.222 47.983 140.221 47.983 140.012C47.983 139.638 48.016 139.033 48.071 138.736C48.313 137.515 49.072 137.053 50.612 137.053ZM67.7697 139.946L67.7807 141.97C67.7807 142.872 67.6707 143.191 67.6157 143.389C67.4507 143.928 67.1097 144.335 66.5267 144.544C66.2517 144.654 65.7787 144.742 65.1627 144.742H58.8597V137.042L60.9057 137.053V139.946H67.7697ZM64.7887 143.059C65.5697 143.059 65.7347 142.586 65.7347 141.97V141.629H60.9057V143.059H64.7887Z" fill="white"/>
<path d="M176.548 104.275C177.802 104.836 177.802 105.958 177.802 106.86C177.802 107.861 176.537 108.323 175.965 108.521L171.543 110.105H177.802V111.777H168.881V109.148L175.019 106.959C175.833 106.651 175.833 105.837 174.832 105.771C174.821 105.771 174.821 105.771 174.81 105.771H168.881V104.088H175.184C175.8 104.088 176.273 104.154 176.548 104.275ZM179.412 104.088H188.344V106.387L187.321 106.992H188.322L188.344 109.005C188.344 109.907 188.234 110.237 188.168 110.424C188.003 110.963 187.662 111.381 187.079 111.59C186.804 111.689 186.331 111.777 185.715 111.777H179.357V110.105H185.352C186.122 110.105 186.287 109.632 186.287 109.016V108.675H181.898V106.992H183.614L185.671 105.76H179.412V104.088ZM191.876 110.578C191.887 110.721 191.887 112.14 191.865 112.481C191.865 112.624 191.711 112.767 191.546 112.778C191.348 112.789 191.161 112.789 190.974 112.778C190.798 112.767 190.655 112.624 190.644 112.481C190.633 112.294 190.633 112.107 190.633 111.92C190.446 111.92 190.259 111.909 190.072 111.909C189.929 111.898 189.786 111.755 189.775 111.579C189.753 111.392 189.753 110.765 189.775 110.578C189.786 110.402 189.929 110.248 190.072 110.248C190.413 110.226 191.392 110.226 191.546 110.237C191.546 110.237 191.557 110.248 191.568 110.248H191.579C191.645 110.248 191.711 110.281 191.766 110.336V110.347C191.777 110.347 191.777 110.347 191.777 110.347C191.832 110.402 191.865 110.468 191.865 110.534C191.876 110.545 191.865 110.545 191.876 110.545C191.876 110.556 191.876 110.567 191.876 110.578ZM199.979 104.088H202.025V111.81H199.979V108.675H195.722C194.193 108.675 193.423 108.213 193.181 106.992C193.126 106.695 193.104 106.09 193.104 105.716C193.104 105.342 193.104 104.088 193.104 104.088H195.216V106.288C195.216 106.673 195.524 106.992 195.909 106.992H199.979V104.088ZM215.977 111.788L213.909 108.829H211.643V111.788H209.597V104.088H211.643V107.047H213.788L215.812 104.088H218.298L215.592 107.861L218.518 111.788H215.977ZM227.43 104.088H230.73V111.788H228.684V105.87L225.571 111.788H224.966L221.853 105.87V111.788H219.807V104.088H223.107L225.263 108.268L227.43 104.088ZM236.299 103.923L233.373 111.777H231.888L234.814 103.923H236.299ZM243.923 104.088H245.969V111.788H243.923V110.105H237.719L237.048 104.077H239.138L239.578 108.466H243.923V104.088Z" fill="white"/>
<path d="M111.975 169.561H118.278V177.261H116.232V171.244H112.151C111.777 171.244 111.458 171.552 111.458 171.937V174.159C111.458 174.731 111.414 175.039 111.348 175.402C111.249 175.963 110.941 176.414 110.567 176.722C110.094 177.118 109.445 177.261 108.477 177.261V175.578C109.258 175.479 109.335 174.676 109.346 174.555C109.346 173.73 109.346 172.729 109.346 172.52C109.346 172.146 109.379 171.541 109.434 171.244C109.676 170.023 110.435 169.561 111.975 169.561ZM129.155 171.244H122.28V172.564H128.088V174.247H122.28V175.578H129.155V177.261H120.234V169.561H129.155V171.244ZM139.719 172.465L139.73 174.489C139.73 175.391 139.62 175.71 139.565 175.908C139.4 176.447 139.059 176.854 138.476 177.074C138.201 177.173 137.728 177.261 137.112 177.261H130.809V169.561H136.122C136.738 169.561 137.211 169.649 137.486 169.748C138.069 169.957 138.388 170.364 138.575 170.914C138.641 171.101 138.74 171.431 138.74 172.333V172.465H139.719ZM136.694 172.322C136.694 171.717 136.54 171.244 135.748 171.244H132.855V172.465H136.694V172.322ZM136.738 175.578C137.519 175.578 137.684 175.105 137.684 174.489V174.148H132.855V175.578H136.738ZM147.434 169.561C149.579 169.561 150.25 170.562 150.25 172.663V174.269C150.25 176.458 149.293 177.261 147.148 177.261H144.288C142.143 177.261 141.197 176.458 141.197 174.269V172.663C141.197 170.562 141.868 169.561 144.013 169.561H147.434ZM148.138 174.379V172.553C148.138 171.75 147.874 171.244 147.115 171.244H144.332C143.573 171.244 143.309 171.75 143.309 172.553V174.379C143.309 175.369 143.628 175.578 144.343 175.578H147.104C147.819 175.578 148.138 175.369 148.138 174.379ZM154.673 169.55H160.778V172.322H158.721V171.233H154.992C154.233 171.233 153.969 171.739 153.969 172.553V174.368C153.969 175.369 154.288 175.567 155.003 175.567H158.721V174.478H160.778V177.25H154.948C152.803 177.25 151.857 176.447 151.857 174.269V172.652C151.857 170.551 152.528 169.55 154.673 169.55ZM170.913 169.561V171.244H167.481V177.261H165.424V171.244H161.992V169.561H170.913ZM178.255 169.561C180.4 169.561 181.071 170.562 181.071 172.663V174.269C181.071 176.458 180.114 177.261 177.969 177.261H175.109C172.964 177.261 172.018 176.458 172.018 174.269V172.663C172.018 170.562 172.689 169.561 174.834 169.561H178.255ZM178.959 174.379V172.553C178.959 171.75 178.695 171.244 177.936 171.244H175.153C174.394 171.244 174.13 171.75 174.13 172.553V174.379C174.13 175.369 174.449 175.578 175.164 175.578H177.925C178.64 175.578 178.959 175.369 178.959 174.379ZM191.688 171.233C191.743 171.53 191.765 172.135 191.765 172.509C191.765 172.883 191.754 173.455 191.699 173.774C191.501 175.039 190.852 175.578 189.147 175.578H184.89V177.25H182.844V169.55H189.147C190.676 169.55 191.446 170.012 191.688 171.233ZM189.653 173.092V171.937C189.653 171.552 189.345 171.233 188.96 171.233H184.89V173.785H188.96C189.345 173.785 189.653 173.477 189.653 173.092ZM199.469 169.561C201.614 169.561 202.285 170.562 202.285 172.663V174.269C202.285 176.458 201.328 177.261 199.183 177.261H196.323C194.178 177.261 193.232 176.458 193.232 174.269V172.663C193.232 170.562 193.903 169.561 196.048 169.561H199.469ZM200.173 174.379V172.553C200.173 171.75 199.909 171.244 199.15 171.244H196.367C195.608 171.244 195.344 171.75 195.344 172.553V174.379C195.344 175.369 195.663 175.578 196.378 175.578H199.139C199.854 175.578 200.173 175.369 200.173 174.379ZM210.933 169.561L212.979 169.55V177.25H210.933V174.247H206.104V177.25H204.058V169.561L206.104 169.55V172.564H210.933V169.561ZM221.787 169.561L223.833 169.55V177.25H221.787V174.247H216.958V177.25H214.912V169.561L216.958 169.55V172.564H221.787V169.561ZM226.679 175.336C226.052 175.072 225.744 174.566 225.623 173.774C225.568 173.444 225.557 172.883 225.557 172.509C225.557 172.135 225.579 171.53 225.634 171.233C225.876 170.012 226.646 169.55 228.175 169.55H234.478V177.25H232.432V175.567H228.857L227.878 177.25H225.557L226.679 175.336ZM232.432 173.785V171.233H228.362C227.977 171.233 227.669 171.541 227.669 171.926V173.092C227.669 173.477 227.977 173.785 228.362 173.785H232.432ZM237.329 175.336C236.702 175.072 236.394 174.566 236.273 173.774C236.218 173.444 236.207 172.883 236.207 172.509C236.207 172.135 236.229 171.53 236.284 171.233C236.526 170.012 237.296 169.55 238.825 169.55H245.128V177.25H243.082V175.567H239.507L238.528 177.25H236.207L237.329 175.336ZM243.082 173.785V171.233H239.012C238.627 171.233 238.319 171.541 238.319 171.926V173.092C238.319 173.477 238.627 173.785 239.012 173.785H243.082Z" fill="white"/>
<path d="M193.381 138.736H187.793V144.753H185.747V137.053H193.381V138.736ZM200.718 137.053C202.863 137.053 203.534 138.054 203.534 140.155V141.761C203.534 143.95 202.577 144.753 200.432 144.753H197.572C195.427 144.753 194.481 143.95 194.481 141.761V140.155C194.481 138.054 195.152 137.053 197.297 137.053H200.718ZM201.422 141.871V140.045C201.422 139.242 201.158 138.736 200.399 138.736H197.616C196.857 138.736 196.593 139.242 196.593 140.045V141.871C196.593 142.861 196.912 143.07 197.627 143.07H200.388C201.103 143.07 201.422 142.861 201.422 141.871ZM208.342 137.053H214.645V144.753H212.599V138.736H208.518C208.144 138.736 207.825 139.044 207.825 139.429V141.651C207.825 142.223 207.781 142.531 207.715 142.894C207.616 143.455 207.308 143.906 206.934 144.214C206.461 144.61 205.812 144.753 204.844 144.753V143.07C205.625 142.971 205.702 142.168 205.713 142.047C205.713 141.222 205.713 140.221 205.713 140.012C205.713 139.638 205.746 139.033 205.801 138.736C206.043 137.515 206.802 137.053 208.342 137.053ZM222.662 137.053C224.807 137.053 225.478 138.054 225.478 140.155V141.761C225.478 143.95 224.521 144.753 222.376 144.753H219.516C217.371 144.753 216.425 143.95 216.425 141.761V140.155C216.425 138.054 217.096 137.053 219.241 137.053H222.662ZM223.366 141.871V140.045C223.366 139.242 223.102 138.736 222.343 138.736H219.56C218.801 138.736 218.537 139.242 218.537 140.045V141.871C218.537 142.861 218.856 143.07 219.571 143.07H222.332C223.047 143.07 223.366 142.861 223.366 141.871ZM236.172 139.957L236.183 141.981C236.183 142.883 236.073 143.202 236.018 143.4C235.853 143.939 235.512 144.346 234.929 144.566C234.654 144.665 234.181 144.753 233.565 144.753H227.262V137.053H232.575C233.191 137.053 233.664 137.141 233.939 137.24C234.522 137.449 234.841 137.856 235.028 138.406C235.094 138.593 235.193 138.923 235.193 139.825V139.957H236.172ZM233.147 139.814C233.147 139.209 232.993 138.736 232.201 138.736H229.308V139.957H233.147V139.814ZM233.191 143.07C233.972 143.07 234.137 142.597 234.137 141.981V141.64H229.308V143.07H233.191ZM244.261 137.053L246.593 144.753H244.503L243.964 142.96H239.828L239.289 144.753H237.199L239.531 137.053H244.261ZM242.688 138.736H241.104L240.378 141.178H243.414L242.688 138.736Z" fill="white"/>
<path d="M35.3891 25.765H38.1941V33.475C38.1941 36.4 37.0991 37.705 34.1291 37.705H27.4091L27.1241 35.425H33.7541C35.1191 35.425 35.3891 34.99 35.3891 34V33.97H26.9291L26.0141 25.75H28.8641L29.4641 31.735H35.3891V25.765ZM53.7109 33.97H55.1509V37.705H52.3459V36.265H42.9409V37.705H40.1359L40.1059 33.97H41.5309C41.5309 33.16 41.5309 30.235 41.5309 29.8C41.5309 29.29 41.5759 28.465 41.6509 28.06C41.9809 26.395 43.0309 25.765 45.1159 25.765H53.7109V33.97ZM44.4109 29.005V33.97H50.9059V28.06H45.3709C44.8459 28.06 44.4109 28.48 44.4109 29.005ZM65.9253 25.765L69.1053 36.265H66.2553L65.5203 33.82H59.8803L59.1453 36.265H56.2953L59.4753 25.765H65.9253ZM63.7803 28.06H61.6203L60.6303 31.39H64.7703L63.7803 28.06ZM82.9708 28.045C83.0458 28.45 83.0758 29.275 83.0758 29.785C83.0758 30.295 83.0608 31.075 82.9858 31.51C82.7158 33.235 81.8308 33.97 79.5058 33.97H73.7008V36.25H70.9108V25.75H79.5058C81.5908 25.75 82.6408 26.38 82.9708 28.045ZM80.1958 30.58V29.005C80.1958 28.48 79.7758 28.045 79.2508 28.045H73.7008V31.525H79.2508C79.7758 31.525 80.1958 31.105 80.1958 30.58Z" fill="white"/>
<line x1="27.0703" y1="49.5" x2="254.07" y2="49.5" stroke="#006BFF"/>
<line x1="25.0703" y1="49" x2="152.07" y2="49" stroke="#006BFF" stroke-width="2"/>
<defs>
<filter id="filter0_b_116_8015" x="-60" y="-60" width="391" height="345" filterUnits="userSpaceOnUse" color-interpolation-filters="sRGB">
<feFlood flood-opacity="0" result="BackgroundImageFix"/>
<feGaussianBlur in="BackgroundImageFix" stdDeviation="30"/>
<feComposite in2="SourceAlpha" operator="in" result="effect1_backgroundBlur_116_8015"/>
<feBlend mode="normal" in="SourceGraphic" in2="effect1_backgroundBlur_116_8015" result="shape"/>
</filter>
<filter id="filter1_b_116_8015" x="-7.50887" y="-7.50887" width="286.018" height="240.018" filterUnits="userSpaceOnUse" color-interpolation-filters="sRGB">
<feFlood flood-opacity="0" result="BackgroundImageFix"/>
<feGaussianBlur in="BackgroundImageFix" stdDeviation="3.75443"/>
<feComposite in2="SourceAlpha" operator="in" result="effect1_backgroundBlur_116_8015"/>
<feBlend mode="normal" in="SourceGraphic" in2="effect1_backgroundBlur_116_8015" result="shape"/>
</filter>
<filter id="filter2_d_116_8015" x="10.6939" y="197.874" width="249.753" height="53.7529" filterUnits="userSpaceOnUse" color-interpolation-filters="sRGB">
<feFlood flood-opacity="0" result="BackgroundImageFix"/>
<feColorMatrix in="SourceAlpha" type="matrix" values="0 0 0 0 0 0 0 0 0 0 0 0 0 0 0 0 0 0 127 0" result="hardAlpha"/>
<feOffset/>
<feGaussianBlur stdDeviation="11.6882"/>
<feColorMatrix type="matrix" values="0 0 0 0 0 0 0 0 0 0.396078 0 0 0 0 1 0 0 0 1 0"/>
<feBlend mode="normal" in2="BackgroundImageFix" result="effect1_dropShadow_116_8015"/>
<feBlend mode="normal" in="SourceGraphic" in2="effect1_dropShadow_116_8015" result="shape"/>
</filter>
<linearGradient id="paint0_linear_116_8015" x1="142.999" y1="-3.33471" x2="142.999" y2="225" gradientUnits="userSpaceOnUse">
<stop stop-color="#0065FF" stop-opacity="0"/>
<stop offset="1" stop-color="#0065FF"/>
</linearGradient>
</defs>
</svg>
