<svg width="116" height="116" viewBox="0 0 116 116" fill="none" xmlns="http://www.w3.org/2000/svg">
<path d="M44.2646 52.5396C43.7812 52.4913 43.2012 52.4913 42.6696 52.5396C31.1662 52.153 22.0312 42.728 22.0312 31.128C22.0312 19.2863 31.6012 9.66797 43.4912 9.66797C55.3329 9.66797 64.9512 19.2863 64.9512 31.128C64.9029 42.728 55.7679 52.153 44.2646 52.5396Z" stroke="#0065FF" stroke-width="7.25" stroke-linecap="round" stroke-linejoin="round"/>
<path opacity="0.4" d="M79.3236 19.332C88.7003 19.332 96.2403 26.9204 96.2403 36.2487C96.2403 45.3837 88.9903 52.827 79.952 53.1654C79.5653 53.117 79.1303 53.117 78.6953 53.1654" stroke="#0065FF" stroke-width="7.25" stroke-linecap="round" stroke-linejoin="round"/>
<path d="M20.1006 70.372C8.40396 78.202 8.40396 90.962 20.1006 98.7437C33.3923 107.637 55.1906 107.637 68.4823 98.7437C80.179 90.9137 80.179 78.1537 68.4823 70.372C55.239 61.527 33.4406 61.527 20.1006 70.372Z" stroke="#0065FF" stroke-width="7.25" stroke-linecap="round" stroke-linejoin="round"/>
<path opacity="0.4" d="M88.6406 96.668C92.1206 95.943 95.4073 94.5413 98.114 92.463C105.654 86.808 105.654 77.4796 98.114 71.8246C95.4556 69.7946 92.2173 68.4413 88.7856 67.668" stroke="#0065FF" stroke-width="7.25" stroke-linecap="round" stroke-linejoin="round"/>
</svg>
