<svg width="106" height="106" viewBox="0 0 106 106" fill="none" xmlns="http://www.w3.org/2000/svg">
<path opacity="0.4" d="M81.7084 55.8659V72.2076C81.7084 85.9876 68.8559 97.1617 53.0001 97.1617C37.1442 97.1617 24.2917 85.9876 24.2917 72.2076V55.8659C24.2917 69.6459 37.1442 79.4951 53.0001 79.4951C68.8559 79.4951 81.7084 69.6459 81.7084 55.8659Z" stroke="#0065FF" stroke-width="6.62932" stroke-linecap="round" stroke-linejoin="round"/>
<path d="M81.7084 33.7883C81.7084 37.8074 80.6042 41.5174 78.6609 44.6974C73.9351 52.4708 64.2184 57.4174 53.0001 57.4174C41.7817 57.4174 32.0651 52.4708 27.3393 44.6974C25.3959 41.5174 24.2917 37.8074 24.2917 33.7883C24.2917 26.8983 27.5159 20.6708 32.6834 16.1658C37.8951 11.6166 45.0501 8.83411 53.0001 8.83411C60.9501 8.83411 68.1051 11.6166 73.3168 16.1216C78.4843 20.6708 81.7084 26.8983 81.7084 33.7883Z" stroke="#0065FF" stroke-width="6.62932" stroke-linecap="round" stroke-linejoin="round"/>
<path d="M81.7084 33.7883V55.8716C81.7084 69.6516 68.8559 79.5008 53.0001 79.5008C37.1442 79.5008 24.2917 69.6516 24.2917 55.8716V33.7883C24.2917 20.0083 37.1442 8.83411 53.0001 8.83411C60.9501 8.83411 68.1051 11.6166 73.3168 16.1216C78.4843 20.6708 81.7084 26.8983 81.7084 33.7883Z" stroke="#0065FF" stroke-width="6.62932" stroke-linecap="round" stroke-linejoin="round"/>
</svg>
