<svg width="116" height="116" viewBox="0 0 116 116" fill="none" xmlns="http://www.w3.org/2000/svg">
<path d="M25.3724 106.335C34.0479 106.335 41.0807 99.3018 41.0807 90.6263C41.0807 81.9508 34.0479 74.918 25.3724 74.918C16.6969 74.918 9.66406 81.9508 9.66406 90.6263C9.66406 99.3018 16.6969 106.335 25.3724 106.335Z" stroke="#0065FF" stroke-width="7.25" stroke-linecap="round" stroke-linejoin="round"/>
<path d="M24.1641 38.668C32.1722 38.668 38.6641 32.1761 38.6641 24.168C38.6641 16.1598 32.1722 9.66797 24.1641 9.66797C16.1559 9.66797 9.66406 16.1598 9.66406 24.168C9.66406 32.1761 16.1559 38.668 24.1641 38.668Z" stroke="#0065FF" stroke-width="7.25" stroke-linecap="round" stroke-linejoin="round"/>
<path d="M91.8359 38.668C99.8441 38.668 106.336 32.1761 106.336 24.168C106.336 16.1598 99.8441 9.66797 91.8359 9.66797C83.8278 9.66797 77.3359 16.1598 77.3359 24.168C77.3359 32.1761 83.8278 38.668 91.8359 38.668Z" stroke="#0065FF" stroke-width="7.25" stroke-linecap="round" stroke-linejoin="round"/>
<g opacity="0.4">
<path d="M24.1719 72.5052V38.6719" stroke="#0065FF" stroke-width="7.25" stroke-linecap="round" stroke-linejoin="round"/>
<path d="M24.8125 72.5072C26.9875 64.0488 34.7208 57.7655 43.8558 57.8138L60.4342 57.8622C73.0975 57.9105 83.8758 49.7905 87.8391 38.4805" stroke="#0065FF" stroke-width="7.25" stroke-linecap="round" stroke-linejoin="round"/>
</g>
</svg>
