<svg width="50" height="50" viewBox="0 0 50 50" fill="none" xmlns="http://www.w3.org/2000/svg">
<path d="M41.8442 21.0155L18.0942 6.24992C17.3797 5.80717 16.5594 5.56467 15.719 5.54782C14.8787 5.53096 14.0492 5.74037 13.3176 6.15411C12.586 6.56785 11.979 7.1707 11.5604 7.89953C11.1417 8.62836 10.9267 9.45635 10.9379 10.2968V39.703C10.9379 40.9462 11.4318 42.1385 12.3109 43.0176C13.1899 43.8967 14.3822 44.3905 15.6254 44.3905C16.4917 44.4093 17.3463 44.1875 18.0942 43.7499L41.8442 29.0468C42.5225 28.6264 43.0823 28.0398 43.4704 27.3425C43.8586 26.6453 44.0624 25.8605 44.0624 25.0624C44.0624 24.2644 43.8586 23.4796 43.4704 22.7823C43.0823 22.085 42.5225 21.4984 41.8442 21.078V21.0155Z" fill="#1260CC"/>
</svg>
