<svg width="338" height="285" viewBox="0 0 338 285" fill="none" xmlns="http://www.w3.org/2000/svg">
<path opacity="0.5" d="M135.667 226.667L146.639 221.18C160.716 214.142 177.284 214.142 191.361 221.18L202.333 226.667" stroke="#FF9F2E" stroke-width="3" stroke-linecap="round"/>
<path d="M319 226.667C319 258.884 292.883 285.001 260.666 285.001C228.45 285.001 202.333 258.884 202.333 226.667C202.333 194.451 228.45 168.334 260.666 168.334C292.883 168.334 319 194.451 319 226.667Z" fill="url(#paint0_linear_39_3049)"/>
<path d="M319 226.667C319 258.884 292.883 285.001 260.666 285.001C228.45 285.001 202.333 258.884 202.333 226.667C202.333 194.451 228.45 168.334 260.666 168.334C292.883 168.334 319 194.451 319 226.667Z" fill="url(#paint1_linear_39_3049)"/>
<path d="M319 226.667C319 258.884 292.883 285.001 260.666 285.001C228.45 285.001 202.333 258.884 202.333 226.667C202.333 194.451 228.45 168.334 260.666 168.334C292.883 168.334 319 194.451 319 226.667Z" fill="#FF9F2E"/>
<path opacity="0.5" d="M45.8966 77.4131L35.6665 118.333H302.333L292.103 77.4131C283.009 41.0351 278.461 22.8461 264.898 12.2564C251.335 1.66669 232.586 1.66669 195.089 1.66669H142.911C105.413 1.66669 86.6645 1.66669 73.1014 12.2564C59.5383 22.8461 54.9911 41.0351 45.8966 77.4131Z" fill="#FF9F2E" stroke="#FF9F2E" stroke-width="3" stroke-linecap="round"/>
<path d="M135.667 226.667C135.667 258.884 109.55 285.001 77.3333 285.001C45.1167 285.001 19 258.884 19 226.667C19 194.451 45.1167 168.334 77.3333 168.334C109.55 168.334 135.667 194.451 135.667 226.667Z" fill="url(#paint2_linear_39_3049)"/>
<path d="M135.667 226.667C135.667 258.884 109.55 285.001 77.3333 285.001C45.1167 285.001 19 258.884 19 226.667C19 194.451 45.1167 168.334 77.3333 168.334C109.55 168.334 135.667 194.451 135.667 226.667Z" fill="url(#paint3_linear_39_3049)"/>
<path d="M135.667 226.667C135.667 258.884 109.55 285.001 77.3333 285.001C45.1167 285.001 19 258.884 19 226.667C19 194.451 45.1167 168.334 77.3333 168.334C109.55 168.334 135.667 194.451 135.667 226.667Z" fill="#FF9F2E"/>
<path d="M2.3335 118.334H335.667" stroke="#FF9F2E" stroke-width="3" stroke-linecap="round"/>
<defs>
<linearGradient id="paint0_linear_39_3049" x1="307.117" y1="172.753" x2="231.092" y2="299.643" gradientUnits="userSpaceOnUse">
<stop stop-color="#FFC700"/>
<stop offset="1" stop-color="#E43086"/>
</linearGradient>
<linearGradient id="paint1_linear_39_3049" x1="453.071" y1="469.563" x2="260.858" y2="175.219" gradientUnits="userSpaceOnUse">
<stop stop-color="#D59851"/>
<stop offset="1"/>
</linearGradient>
<linearGradient id="paint2_linear_39_3049" x1="123.784" y1="172.753" x2="47.7593" y2="299.643" gradientUnits="userSpaceOnUse">
<stop stop-color="#FFC700"/>
<stop offset="1" stop-color="#E43086"/>
</linearGradient>
<linearGradient id="paint3_linear_39_3049" x1="269.738" y1="469.563" x2="77.5247" y2="175.219" gradientUnits="userSpaceOnUse">
<stop stop-color="#D59851"/>
<stop offset="1"/>
</linearGradient>
</defs>
</svg>
