<svg width="68" height="68" viewBox="0 0 68 68" fill="none" xmlns="http://www.w3.org/2000/svg">
<path opacity="0.4" d="M54.2354 55.2486C59.2504 50.1486 62.3388 43.122 62.3388 35.4153C62.3388 19.7753 49.6455 7.08197 34.0055 7.08197C18.3655 7.08197 5.67212 19.7753 5.67212 35.4153C5.67212 43.122 8.73211 50.092 13.7188 55.2203" stroke="#0065FF" stroke-width="4.27104" stroke-miterlimit="10" stroke-linecap="round" stroke-linejoin="round"/>
<path d="M33.9907 60.9151C39.2798 60.9151 43.5674 56.6274 43.5674 51.3384C43.5674 46.0493 39.2798 41.7617 33.9907 41.7617C28.7017 41.7617 24.4141 46.0493 24.4141 51.3384C24.4141 56.6274 28.7017 60.9151 33.9907 60.9151Z" stroke="#0065FF" stroke-width="4.27104" stroke-miterlimit="10" stroke-linecap="round" stroke-linejoin="round"/>
<path d="M43.2109 34H45.3359C47.6593 34 49.5859 32.1017 49.5859 29.75C49.5859 27.4267 47.6593 25.5 45.3359 25.5C43.0126 25.5 41.0859 27.3983 41.0859 29.75V31.875C41.0859 33.0367 42.0493 34 43.2109 34Z" stroke="#0065FF" stroke-width="4.27104" stroke-miterlimit="10" stroke-linecap="round" stroke-linejoin="round"/>
</svg>
